<svg xmlns="http://www.w3.org/2000/svg" viewBox="0 0 100 100">
  <rect width="100" height="100" rx="20" fill="#3b82f6"/>
  <g transform="translate(50, 50) scale(2.5)" fill="none" stroke="white" stroke-width="2" stroke-linecap="round" stroke-linejoin="round">
    <path d="M9.937 15.5A2 2 0 0 0 8.5 14.063l-6.135-1.582a.5.5 0 0 1 0-.962L8.5 9.936A2 2 0 0 0 9.937 8.5l1.582-6.135a.5.5 0 0 1 .963 0L14.063 8.5A2 2 0 0 0 15.5 9.937l6.135 1.581a.5.5 0 0 1 0 .964L15.5 14.063a2 2 0 0 0-1.437 1.437l-1.582 6.135a.5.5 0 0 1-.963 0z" transform="translate(-12, -12)"/>
    <path d="M20 3v4" transform="translate(-12, -12)"/>
    <path d="M22 5h-4" transform="translate(-12, -12)"/>
    <path d="M4 17v2" transform="translate(-12, -12)"/>
    <path d="M5 18H3" transform="translate(-12, -12)"/>
  </g>
</svg>
